<?xml version="1.0" encoding="UTF-8" standalone="no"?>
<!-- Created with Inkscape (http://www.inkscape.org/) -->

<svg
   xmlns:dc="http://purl.org/dc/elements/1.1/"
   xmlns:cc="http://creativecommons.org/ns#"
   xmlns:rdf="http://www.w3.org/1999/02/22-rdf-syntax-ns#"
   xmlns:svg="http://www.w3.org/2000/svg"
   xmlns="http://www.w3.org/2000/svg"
   xmlns:sodipodi="http://sodipodi.sourceforge.net/DTD/sodipodi-0.dtd"
   xmlns:inkscape="http://www.inkscape.org/namespaces/inkscape"
   width="120.34074"
   height="26.662189"
   viewBox="0 0 120.34074 26.662189"
   id="svg4244"
   version="1.1"
   inkscape:version="0.91 r13725"
   sodipodi:docname="levy restaurants.svg">
  <defs
     id="defs4246">
    <clipPath
       id="clipPath3539"
       clipPathUnits="userSpaceOnUse">
      <path
         inkscape:connector-curvature="0"
         id="path3541"
         d="m 468.039,26.79 95.962,0 0,21.396 -95.962,0 0,-21.396 z" />
    </clipPath>
  </defs>
  <sodipodi:namedview
     id="base"
     pagecolor="#ffffff"
     bordercolor="#666666"
     borderopacity="1.0"
     inkscape:pageopacity="0.0"
     inkscape:pageshadow="2"
     inkscape:zoom="40.20164"
     inkscape:cx="17.611954"
     inkscape:cy="15.758064"
     inkscape:document-units="px"
     inkscape:current-layer="layer1"
     showgrid="false"
     fit-margin-top="0"
     fit-margin-left="0"
     fit-margin-right="0"
     fit-margin-bottom="0"
     units="px"
     inkscape:window-width="1280"
     inkscape:window-height="744"
     inkscape:window-x="-4"
     inkscape:window-y="-4"
     inkscape:window-maximized="1" />
  <metadata
     id="metadata4249">
    <rdf:RDF>
      <cc:Work
         rdf:about="">
        <dc:format>image/svg+xml</dc:format>
        <dc:type
           rdf:resource="http://purl.org/dc/dcmitype/StillImage" />
        <dc:title></dc:title>
      </cc:Work>
    </rdf:RDF>
  </metadata>
  <g
     inkscape:label="Layer 1"
     inkscape:groupmode="layer"
     id="layer1"
     transform="translate(-414.36534,-624.49539)">
    <g
       id="g3535"
       transform="matrix(1.25,0,0,-1.25,-170.54367,684.81383)">
      <g
         id="g3537"
         clip-path="url(#clipPath3539)">
        <g
           id="g3543"
           transform="translate(486.1295,29.8325)">
          <path
             d="M 0,0 C -0.21,-0.419 -0.472,-0.892 -0.21,-1.311 1.468,-1.783 3.041,-0.629 4.247,0.524 6.03,1.731 6.24,4.038 6.765,6.03 L 6.712,6.292 C 5.139,5.296 3.513,4.247 2.202,2.884 1.364,1.992 0.629,1.048 0,0 m -8.81,11.064 c 0.682,0.157 1.206,0.682 1.73,1.049 -0.052,0.158 -0.157,0.367 -0.366,0.419 -0.63,-0.314 -0.997,-0.891 -1.364,-1.468 m -7.237,7.079 c 0.211,0.21 0.472,-0.052 0.63,-0.157 0.629,-0.314 1.206,-0.839 1.311,-1.573 l -0.053,-0.786 c -0.629,-2.832 -1.992,-5.401 -1.888,-8.443 1.679,0.734 3.147,1.678 4.72,2.57 0.262,1.467 1.206,2.673 1.888,3.932 0.367,0.262 0.682,0.262 1.05,0.105 0.68,-0.734 1.939,-0.734 2.516,-1.573 0.262,-0.682 -0.472,-0.944 -0.787,-1.311 -0.944,-0.577 -2.15,-0.891 -2.884,-1.783 -0.052,-0.157 -0.052,-0.367 0,-0.472 2.15,0.787 3.828,2.465 5.873,3.461 0.472,-0.419 1.311,-0.367 1.468,-1.049 -0.629,-0.944 -0.681,-2.307 -0.577,-3.461 1.207,0.892 1.416,2.517 1.836,3.881 0.577,0.419 1.468,0.21 2.045,0.315 1.049,0.314 2.412,1.31 3.356,0.209 C 4.352,11.484 3.933,11.117 3.775,10.645 3.408,9.91 3.147,9.124 3.147,8.285 3.251,8.023 3.461,8.338 3.618,8.39 l 3.251,3.199 c 0.63,0.052 0.997,-0.577 1.416,-0.892 L 8.338,9.124 c 1.258,0.577 2.621,1.154 3.933,1.678 l 0,-0.105 C 11.012,9.439 9.439,8.547 8.338,7.079 c 0,-3.671 -1.469,-7.446 -4.773,-9.124 -1.625,-0.839 -4.037,-0.997 -5.401,0.209 -0.944,0.997 0.21,2.046 0.682,2.937 2.202,2.832 5.087,4.719 7.866,6.66 0.157,0.577 0.157,1.311 0,1.835 C 5.559,8.599 4.562,7.237 3.093,6.66 2.569,6.712 2.097,7.027 1.73,7.446 1.364,8.81 1.94,10.016 2.464,11.169 L 2.36,11.221 C 1.73,11.012 1.101,10.802 0.367,10.802 0.052,10.172 -0.053,9.439 -0.314,8.757 -0.629,7.813 -1.101,6.764 -1.993,6.188 -2.727,6.135 -3.304,5.716 -3.933,6.292 -4.719,7.341 -4.562,9.072 -4.3,10.383 l -0.105,0.104 C -5.873,9.386 -7.289,8.127 -8.81,7.289 c -0.891,-0.105 -1.94,0.104 -2.412,1.049 -1.521,-1.101 -2.779,-2.098 -4.353,-3.094 -0.524,0 -1.258,-0.158 -1.625,0.262 -0.472,0.524 -0.891,1.101 -0.786,1.887 -0.105,3.881 1.415,7.132 1.939,10.75"
             style="fill:#ef3e42;fill-opacity:1;fill-rule:evenodd;stroke:none"
             id="path3545"
             inkscape:connector-curvature="0" />
        </g>
        <g
           id="g3547"
           transform="translate(559.8968,37.1921)">
          <path
             d="m 0,0 -0.364,0.193 c 0,0.329 0.521,0.365 0.768,0.446 C 0.486,0.392 0.33,-0.083 0,0 m -21.591,0.716 c -0.158,0.209 0.052,0.576 0.158,0.786 0.471,0.787 1.31,1.102 2.045,1.469 -0.211,-1.102 -1.26,-1.783 -2.203,-2.255 M -45.883,0.113 c -0.702,-0.175 -0.134,0.675 0.233,0.695 l 0.087,0 c 0,-0.176 -0.057,-0.607 -0.32,-0.695 m -11.262,6.371 c 1.259,0.263 2.728,0.681 3.986,0.263 0.262,-0.263 0.104,-0.578 -0.053,-0.84 -1.363,-1.311 -2.988,-2.097 -4.667,-2.779 0.21,0.996 0.577,1.992 1.259,2.832 0,0.314 -0.367,0.367 -0.525,0.524 m 5.454,-4.51 c 0.524,0.42 0.482,1.269 1.574,1.101 -0.472,-0.471 -0.758,-0.938 -1.626,-1.259 l 0.052,0.158 z M 1.586,1.921 c -0.157,0.315 0,0.787 0,1.154 0.21,0.682 -0.471,0.786 -0.943,0.892 L -4.129,1.816 C -5.65,1.45 -7.381,-0.071 -8.848,1.03 c -0.263,0.368 -0.263,0.891 -0.106,1.312 0.263,1.415 1.837,0.838 2.833,1.205 1.31,0.367 2.936,0.105 4.194,0.682 -1.835,0 -3.88,0.158 -5.768,0.21 -0.472,0.21 0.262,0.42 0.053,0.839 C -7.695,5.645 -8.114,5.749 -8.429,5.749 -8.796,5.645 -8.848,5.225 -8.954,4.963 -9.163,4.019 -9.793,4.544 -10.317,4.387 c -0.629,0.052 -1.363,0.262 -1.94,0.209 -0.105,-0.629 0.524,-0.944 0.577,-1.521 0.367,-0.471 1.1,-0.104 1.521,-0.209 -0.63,-0.63 -1.259,-1.416 -2.203,-1.416 -0.63,0.157 0,1.049 -0.524,1.258 -0.735,0.42 -1.049,-0.576 -1.521,-0.787 0.053,0.578 0.524,1.05 0.419,1.731 -0.157,0.262 -0.577,0.315 -0.891,0.367 l -3.042,-2.517 c -0.314,-0.157 -0.629,-0.367 -0.996,-0.314 0.053,0.524 0.577,0.944 0.524,1.52 -0.314,0.105 -0.628,0.42 -0.943,0.315 l 0.577,0.367 c 0,0.157 -0.105,0.314 -0.262,0.42 -0.525,0.524 -1.259,0.157 -1.731,-0.21 -1.364,-1.206 -2.832,-2.412 -4.405,-2.989 -0.21,0.681 -0.105,1.521 0,2.202 -0.42,0.42 -0.472,1.416 -1.258,1.416 -0.682,-0.944 -1.417,-1.993 -2.361,-2.779 -0.052,0.524 0.053,1.154 0.106,1.73 -0.21,0.315 -0.525,0.367 -0.839,0.472 l -0.368,-0.524 c -0.105,-0.996 -0.891,-1.678 -1.572,-2.412 -0.158,-0.105 -0.368,-0.42 -0.63,-0.262 -0.053,0.629 0.209,1.206 0.525,1.73 0.052,0.472 0.681,0.891 0.419,1.363 -0.314,0.21 -0.787,0.367 -1.153,0.105 -0.263,-1.101 -1.364,-1.731 -2.045,-2.517 l -0.315,0 c 0.105,0.472 0.262,1.101 0.629,1.521 -0.105,0.21 -0.367,0.472 -0.629,0.524 -0.944,-0.157 -1.364,-1.573 -2.465,-1.52 l 0,0.104 c 0.21,0.735 0.891,1.416 1.625,1.469 0.315,0.157 0.787,0 1.102,0.157 0.157,0.314 0.053,0.682 -0.157,0.891 -0.84,0.158 -1.679,-0.209 -2.36,-0.629 -0.786,-0.944 -1.783,-1.678 -2.779,-2.36 -0.263,-0.052 -0.577,-0.367 -0.892,-0.104 0.157,1.048 0.315,2.15 0.997,2.988 1.992,0.944 4.562,0.211 6.502,1.259 -1.993,0.21 -3.985,0.053 -5.978,0.157 0,0.42 -0.158,0.787 -0.577,1.049 -0.682,0.262 -0.472,-0.892 -0.944,-1.153 l -1.678,-0.053 c -0.262,0 -0.419,0.367 -0.734,0.263 l -0.052,-0.315 c 0.314,-0.629 0.605,-1.313 1.391,-1.523 -0.84,-0.682 -2.021,-1.204 -2.913,-1.571 l 0.158,1.835 c -0.367,0.157 -0.787,0.367 -1.154,0.315 -1.363,-1.731 -3.356,-2.57 -5.087,-3.671 -0.313,-0.157 -0.838,-0.314 -1.205,-0.157 -0.052,0.105 -0.052,0.314 0.105,0.367 1.206,0.157 1.94,1.258 2.674,2.202 l 0,0.21 c -0.158,0.577 -0.734,0.42 -1.102,0.734 -1.31,0.263 -1.939,-1.311 -2.569,-2.15 -1.153,0.262 -2.412,0.42 -3.513,0.734 1.521,0.787 3.304,1.521 4.353,2.99 0.314,0.681 -0.158,1.258 -0.682,1.625 -2.622,0.891 -5.401,0.314 -8.023,-0.367 l -0.734,0.419 c -0.42,-0.628 -0.735,-1.468 -0.525,-2.255 0.157,-0.052 0.367,0.053 0.525,0.053 0.996,0.262 1.783,1.049 2.779,0.996 -0.105,-0.891 -0.524,-1.782 -0.63,-2.779 -0.21,-0.21 -0.366,0.21 -0.576,0.157 -0.105,-0.104 -0.105,-0.262 -0.158,-0.367 -0.052,-0.419 0.21,-0.734 0.472,-0.996 -0.052,-1.259 -0.576,-2.779 0.158,-3.933 0.314,-0.157 0.629,-0.367 0.943,-0.209 0.053,1.205 -0.157,2.517 0.21,3.67 l 4.824,-0.42 c 0.84,-0.209 0.21,-1.311 1.049,-1.625 0.42,-0.21 0.996,-0.157 1.416,0.104 1.783,0.84 3.252,2.413 5.087,2.99 0.209,-0.997 -0.682,-1.259 -1.311,-1.678 -0.21,-0.158 -0.63,0.052 -0.735,-0.21 0.472,-0.786 1.259,-1.468 2.098,-1.783 1.049,0.157 1.049,1.416 1.311,2.255 1.049,0.419 1.993,1.101 3.041,1.573 0,-0.786 -0.104,-1.783 0.525,-2.307 1.101,-0.524 1.993,0.472 2.884,0.996 0.052,-0.315 0.209,-0.577 0.525,-0.787 0.734,-0.419 1.311,0.263 1.887,0.63 0.209,-0.367 0.315,-0.787 0.629,-1.102 0.892,-0.261 1.259,0.787 1.941,0.997 0.105,-0.577 0.105,-1.311 0.734,-1.574 1.049,-0.314 1.625,0.788 2.411,1.259 0.264,-0.314 0.63,-0.682 1.102,-0.629 1.154,0.472 1.678,1.731 2.57,2.412 -0.053,-0.839 -0.577,-2.254 0.209,-2.936 0.525,-0.314 1.049,-0.106 1.521,0.052 0.629,0.158 1.049,0.944 1.73,0.996 0,-0.314 0,-0.629 0.263,-0.838 1.049,-0.682 1.782,0.576 2.726,0.891 1.521,-1.678 2.886,0.734 4.091,1.258 -0.105,-0.786 -0.525,-1.782 0.052,-2.465 1.154,-0.419 1.312,1.207 2.046,1.627 0.419,-0.368 0.838,-0.735 1.415,-0.63 0.787,0.105 1.416,0.577 1.992,1.101 0.157,-0.314 0.053,-0.734 0.211,-1.049 0.472,-0.891 1.363,-1.206 2.306,-1.153 2.833,0.629 5.297,2.307 7.919,3.408 C 0.433,2.551 0.538,1.869 0.276,1.45 L -1.455,0.978 c -0.262,-0.053 -0.524,0.21 -0.734,0 -0.105,-0.419 0.157,-0.787 0.42,-1.101 0.891,0 1.467,-0.787 2.202,-1.154 1.258,0.157 0.734,1.731 1.206,2.569 l 1.888,0.682 c 0.315,0 0.524,0.368 0.576,0.472 C 3.317,2.184 2.478,1.974 1.586,1.921"
             style="fill:#ef3e42;fill-opacity:1;fill-rule:evenodd;stroke:none"
             id="path3549"
             inkscape:connector-curvature="0" />
        </g>
      </g>
    </g>
  </g>
</svg>
